<svg width="47" height="38" viewBox="0 0 47 38" fill="none" xmlns="http://www.w3.org/2000/svg">
<path d="M3 16.5C1.61929 16.5 0.5 17.6193 0.5 19C0.5 20.3807 1.61929 21.5 3 21.5V16.5ZM45.7678 20.7678C46.7441 19.7915 46.7441 18.2085 45.7678 17.2322L29.8579 1.32233C28.8816 0.34602 27.2986 0.34602 26.3223 1.32233C25.346 2.29864 25.346 3.88155 26.3223 4.85786L40.4645 19L26.3223 33.1421C25.346 34.1184 25.346 35.7014 26.3223 36.6777C27.2986 37.654 28.8816 37.654 29.8579 36.6777L45.7678 20.7678ZM3 19V21.5H44V19V16.5H3V19Z" fill="#FFE5B4"/>
</svg>
